#!OML:ASF I:\Actors\actors\Patient Classification 2\Patient 1\Session 1\actor1.ASF
:FULLY-SPECIFIED
:DEGREES
705
root -0.496505 18.7385 5.47464 2.62383 -0.123974 -1.20709
lowerback 3.26726 1.72722 0.276047
upperback 0.398678 2.34502 2.08636
thorax -1.498 1.17538 1.87873
lowerneck -10.3401 -2.72441 -1.20467
upperneck 34.0394 -4.07555 1.1179
head 13.1666 -1.77907 0.0831971
rclavicle -1.16289e-014 -1.51076e-014
rhumerus -22.6104 40.8473 -92.5783
rradius 83.5355
rwrist 22.4601
rhand -17.3151 -59.3279
rfingers 7.12502
rthumb 8.93126 -89.1189
lclavicle -1.16289e-014 -1.51076e-014
lhumerus 19.7078 -52.3603 55.2423
lradius 65.373
lwrist -10.5149
lhand 18.2057 -33.3867
lfingers 7.12502
lthumb 42.8601 -9.09148
rfemur 0 0 0
rtibia 0
rfoot 0 0
rtoes 0
lfemur -6.88445 -5.84067 -13.535
ltibia 22.3137
lfoot -21.5903 14.308
ltoes -55.4166
706
root -0.495697 18.7373 5.47493 2.5938 0.160208 -1.15503
lowerback 3.29936 1.60946 0.189064
upperback 0.43703 2.18495 2.10539
thorax -1.47557 1.09579 1.95421
lowerneck -10.2467 -2.6823 -1.04293
upperneck 33.8831 -3.99339 0.951555
head 13.0686 -1.74659 0.00407742
rclavicle -2.27111e-014 -7.95139e-015
rhumerus -23.3658 41.0744 -92.8979
rradius 84.2774
rwrist 22.0982
rhand -17.2573 -59.2885
rfingers 7.12502
rthumb 8.98705 -89.0771
lclavicle -2.27111e-014 -7.95139e-015
lhumerus 19.6519 -52.1981 55.2602
lradius 65.3829
lwrist -10.609
lhand 18.1693 -33.502
lfingers 7.12502
lthumb 42.826 -9.19483
rfemur 0 0 0
rtibia 0
rfoot 0 0
rtoes 0
lfemur -6.92221 -5.88256 -13.5724
ltibia 22.3073
lfoot -21.4607 14.1181
ltoes -55.4611
707
root -0.495617 18.7358 5.47222 2.54849 0.312841 -0.960924
lowerback 3.40103 1.53605 -0.046544
upperback 0.46737 2.07895 2.08579
thorax -1.50547 1.04411 2.06881
lowerneck -10.1752 -2.64003 -0.878569
upperneck 33.7314 -3.89844 0.745445
head 12.9768 -1.71299 -0.0892785
rclavicle 5.2181e-015 1.51076e-014
rhumerus -23.9389 41.088 -93.1989
rradius 84.7276
rwrist 21.8746
rhand -17.178 -59.1395
rfingers 7.12502
rthumb 9.0636 -88.9247
lclavicle 5.2181e-015 1.51076e-014
lhumerus 19.5546 -52.0689 55.297
lradius 65.3985
lwrist -10.7394
lhand 18.2191 -33.5876
lfingers 7.12502
lthumb 42.8726 -9.29679
rfemur 0 0 0
rtibia 0
rfoot 0 0
rtoes 0
lfemur -6.91728 -5.97294 -13.7803
ltibia 22.2951
lfoot -21.4266 14.0456
ltoes -55.4399
708
root -0.495088 18.7349 5.47186 2.4797 0.419233 -0.915535
lowerback 3.50897 1.49474 -0.102712
upperback 0.500414 2.0226 2.1003
thorax -1.53237 1.01624 2.11557
lowerneck -10.2256 -2.65083 -1.04319
upperneck 33.7221 -3.89262 0.801751
head 12.9893 -1.72366 -0.0387021
rclavicle -6.4605e-015 2.3059e-014
rhumerus -24.2159 40.8484 -93.4145
rradius 84.8401
rwrist 21.7963
rhand -17.1238 -58.9299
rfingers 7.12502
rthumb 9.11592 -88.7129
lclavicle -6.4605e-015 2.3059e-014
lhumerus 19.3513 -51.9469 55.5016
lradius 65.4
lwrist -10.9504
lhand 18.4584 -33.7039
lfingers 7.12502
lthumb 43.0964 -9.49209
rfemur 0 0 0
rtibia 0
rfoot 0 0
rtoes 0
lfemur -6.85571 -6.01269 -13.8246
ltibia 22.2623
lfoot -21.4183 13.9499
ltoes -55.3548
709
root -0.493981 18.7348 5.47246 2.43032 0.454524 -0.962445
lowerback 3.57402 1.48036 -0.0443442
upperback 0.528288 2.0063 2.12898
thorax -1.5386 1.0077 2.11182
lowerneck -10.2687 -2.66559 -1.24979
upperneck 33.745 -3.90932 0.936406
head 13.0176 -1.7391 0.0464529
rclavicle -6.5102e-015 -4.77083e-015
rhumerus -24.0764 40.4986 -93.4876
rradius 84.6114
rwrist 21.7391
rhand -17.1491 -58.7921
rfingers 7.12502
rthumb 9.09143 -88.5762
lclavicle -6.5102e-015 -4.77083e-015
lhumerus 19.0917 -51.8673 55.7401
lradius 65.4379
lwrist -11.147
lhand 18.625 -33.8773
lfingers 7.12502
lthumb 43.2521 -9.72105
rfemur 0 0 0
rtibia 0
rfoot 0 0
rtoes 0
lfemur -6.79761 -6.00384 -13.7754
ltibia 22.2416
lfoot -21.4217 13.8916
ltoes -55.3047
710
root -0.491745 18.7351 5.47242 2.44063 0.375664 -0.943966
lowerback 3.55828 1.50032 -0.0491349
upperback 0.549616 2.03239 2.14443
thorax -1.50962 1.02057 2.12984
lowerneck -10.2754 -2.6734 -1.44557
upperneck 33.7471 -3.92413 1.08854
head 13.0293 -1.7506 0.13759
rclavicle 2.35063e-014 -1.59028e-015
rhumerus -23.5791 40.0598 -93.4355
rradius 84.0607
rwrist 21.7853
rhand -17.007 -58.6253
rfingers 7.12502
rthumb 9.22859 -88.4034
lclavicle 2.35063e-014 -1.59028e-015
lhumerus 18.9187 -51.8396 55.8841
lradius 65.4951
lwrist -11.3084
lhand 18.6818 -34.0608
lfingers 7.12502
lthumb 43.3052 -9.92359
rfemur 0 0 0
rtibia 0
rfoot 0 0
rtoes 0
lfemur -6.79788 -6.00355 -13.8151
ltibia 22.2627
lfoot -21.4441 13.9564
ltoes -55.2948
711
root -0.488899 18.7358 5.4765 2.46858 0.259141 -0.964918
lowerback 3.4615 1.54041 -0.0174841
upperback 0.578861 2.08599 2.18594
thorax -1.42791 1.04684 2.15526
lowerneck -10.2913 -2.67377 -1.57036
upperneck 33.7169 -3.91017 1.14002
head 13.0241 -1.75348 0.181275
rclavicle 8.94531e-016 -1.35174e-014
rhumerus -22.8484 39.5923 -93.2892
rradius 83.2937
rwrist 21.8077
rhand -16.8316 -58.6819
rfingers 7.12502
rthumb 9.39786 -88.4524
lclavicle 8.94531e-016 -1.35174e-014
lhumerus 18.8032 -51.8286 56.0679
lradius 65.4423
lwrist -11.5541
lhand 18.7006 -34.2264
lfingers 7.12502
lthumb 43.3227 -10.0954
rfemur 0 0 0
rtibia 0
rfoot 0 0
rtoes 0
lfemur -6.80103 -5.93763 -13.8121
ltibia 22.2888
lfoot -21.4364 14.0175
ltoes -55.3473
712
root -0.485671 18.7361 5.48339 2.49168 0.0965117 -1.03888
lowerback 3.34487 1.61695 0.092309
upperback 0.606453 2.19067 2.23376
thorax -1.3361 1.09827 2.14168
lowerneck -10.3133 -2.68636 -1.55126
upperneck 33.6831 -3.89184 1.02272
head 13.0104 -1.75773 0.134817
rclavicle -2.60408e-014 -2.14687e-014
rhumerus -21.9678 39.1779 -93.0295
rradius 82.4193
rwrist 21.7422
rhand -16.975 -59.0549
rfingers 7.12502
rthumb 9.25945 -88.8316
lclavicle -2.60408e-014 -2.14687e-014
lhumerus 18.7039 -51.8825 56.2772
lradius 65.3877
lwrist -11.6878
lhand 18.8595 -34.3173
lfingers 7.12502
lthumb 43.4712 -10.24
rfemur 0 0 0
rtibia 0
rfoot 0 0
rtoes 0
lfemur -6.77297 -5.78152 -13.7517
ltibia 22.3046
lfoot -21.4574 14.0422
ltoes -55.4465
